<?xml version="1.0" standalone="no"?>
<!DOCTYPE svg PUBLIC "-//W3C//DTD SVG 20010904//EN"
 "http://www.w3.org/TR/2001/REC-SVG-20010904/DTD/svg10.dtd">
<svg version="1.0" xmlns="http://www.w3.org/2000/svg"
 width="256.000000pt" height="256.000000pt" viewBox="0 0 256.000000 256.000000"
 preserveAspectRatio="xMidYMid meet">

<g transform="translate(0.000000,256.000000) scale(0.100000,-0.100000)"
fill="#000000" stroke="none">
<path d="M666 1977 c-31 -24 -48 -199 -26 -276 8 -29 6 -38 -16 -64 -68 -81
-99 -197 -90 -337 18 -280 139 -436 388 -501 40 -10 85 -19 99 -19 38 0 41 -9
15 -41 -13 -15 -30 -50 -37 -77 -11 -45 -16 -51 -49 -61 -53 -16 -144 -14
-188 4 -47 20 -75 47 -123 116 -21 32 -53 66 -71 77 -65 40 -158 51 -158 19 0
-6 29 -38 65 -71 48 -44 76 -82 103 -136 66 -130 159 -178 324 -167 l88 6 0
-105 c0 -58 -4 -114 -10 -124 -9 -17 -4 -20 46 -30 189 -39 319 -39 509 0 42
9 54 15 46 23 -7 7 -11 74 -11 197 0 199 -12 276 -51 331 -23 33 -26 31 68 49
283 51 421 211 439 510 9 141 -22 257 -91 339 -24 28 -26 35 -16 63 25 71 2
276 -32 279 -62 5 -152 -24 -247 -80 l-66 -39 -69 15 c-95 22 -354 22 -449 0
l-70 -15 -65 39 c-108 65 -223 99 -255 76z m-139 -1203 c-9 -9 -28 6 -21 18 4
6 10 6 17 -1 6 -6 8 -13 4 -17z m61 -42 c3 -9 -2 -13 -14 -10 -9 1 -19 9 -22
16 -3 9 2 13 14 10 9 -1 19 -9 22 -16z m46 -57 c6 -17 -9 -29 -24 -20 -5 3
-10 15 -10 25 0 22 25 18 34 -5z m56 -64 c7 -14 7 -22 -1 -27 -14 -8 -43 21
-35 35 11 17 24 13 36 -8z m74 -37 c23 -9 20 -34 -3 -34 -22 0 -35 15 -26 30
7 12 8 12 29 4z m201 -19 c0 -5 -10 -11 -22 -13 -16 -2 -23 2 -23 13 0 11 7
15 23 13 12 -2 22 -7 22 -13z m-91 -4 c8 -12 -21 -34 -34 -26 -17 11 -11 35 9
35 11 0 22 -4 25 -9z"/>
</g>
</svg>
